<svg width="56" height="56" viewBox="0 0 56 56" fill="none" xmlns="http://www.w3.org/2000/svg">
<circle cx="28" cy="28" r="28" fill="#F4F7FE"/>
<g clip-path="url(#clip0_1_5094)">
<path d="M20.2841 24.3136H20.5578C21.6115 24.3136 22.4736 25.1757 22.4736 26.2293V35.8082C22.4736 36.8618 21.6115 37.7239 20.5578 37.7239H20.2841C19.2305 37.7239 18.3684 36.8618 18.3684 35.8082V26.2293C18.3684 25.1757 19.2305 24.3136 20.2841 24.3136ZM27.9472 18.5663C29.0009 18.5663 29.863 19.4284 29.863 20.482V35.8082C29.863 36.8618 29.0009 37.7239 27.9472 37.7239C26.8935 37.7239 26.0314 36.8618 26.0314 35.8082V20.482C26.0314 19.4284 26.8935 18.5663 27.9472 18.5663ZM35.6103 29.5135C36.6639 29.5135 37.526 30.3756 37.526 31.4293V35.8082C37.526 36.8618 36.6639 37.7239 35.6103 37.7239C34.5566 37.7239 33.6945 36.8618 33.6945 35.8082V31.4293C33.6945 30.3756 34.5566 29.5135 35.6103 29.5135Z" fill="#1C4532"/>
</g>
<defs>
<clipPath id="clip0_1_5094">
<rect width="32.8417" height="32.8417" fill="white" transform="translate(11.5264 11.7242)"/>
</clipPath>
</defs>
</svg>
